<svg width="1200" height="630" viewBox="0 0 1200 630" fill="none" xmlns="http://www.w3.org/2000/svg">
  <rect width="1200" height="630" fill="#020617"/>
  <g opacity="0.22">
    <path d="M0 72h1200M0 144h1200M0 216h1200M0 288h1200M0 360h1200M0 432h1200M0 504h1200M0 576h1200" stroke="#38BDF8"/>
    <path d="M72 0v630M144 0v630M216 0v630M288 0v630M360 0v630M432 0v630M504 0v630M576 0v630M648 0v630M720 0v630M792 0v630M864 0v630M936 0v630M1008 0v630M1080 0v630M1152 0v630" stroke="#38BDF8"/>
  </g>
  <circle cx="982" cy="156" r="250" fill="#7C3AED" opacity="0.18"/>
  <circle cx="216" cy="500" r="260" fill="#06B6D4" opacity="0.18"/>
  <rect x="78" y="76" width="1044" height="478" rx="8" stroke="#67E8F9" stroke-opacity="0.34"/>
  <text x="104" y="218" fill="#E0F2FE" font-family="Inter, Arial, sans-serif" font-size="76" font-weight="700">Nalin Sharma</text>
  <text x="108" y="290" fill="#67E8F9" font-family="Inter, Arial, sans-serif" font-size="38" font-weight="600">AI/ML Engineer - Computer Science AI Student</text>
  <text x="108" y="372" fill="#CBD5E1" font-family="Inter, Arial, sans-serif" font-size="28">NLP - Computer Vision - Healthcare AI - Secure AI Products</text>
  <g transform="translate(108 430)">
    <rect width="196" height="56" rx="8" fill="#22D3EE" fill-opacity="0.16" stroke="#22D3EE" stroke-opacity="0.45"/>
    <text x="24" y="37" fill="#CFFAFE" font-family="Inter, Arial, sans-serif" font-size="22" font-weight="600">View Projects</text>
  </g>
  <g transform="translate(324 430)">
    <rect width="216" height="56" rx="8" fill="#A78BFA" fill-opacity="0.14" stroke="#A78BFA" stroke-opacity="0.45"/>
    <text x="24" y="37" fill="#EDE9FE" font-family="Inter, Arial, sans-serif" font-size="22" font-weight="600">Download Resume</text>
  </g>
</svg>
